<?xml version="1.0" encoding="utf-8"?>
<!-- Generator: Adobe Illustrator 17.1.0, SVG Export Plug-In . SVG Version: 6.00 Build 0)  -->
<!DOCTYPE svg PUBLIC "-//W3C//DTD SVG 1.1//EN" "http://www.w3.org/Graphics/SVG/1.1/DTD/svg11.dtd">
<svg version="1.1" id="Layer_1" xmlns="http://www.w3.org/2000/svg" xmlns:xlink="http://www.w3.org/1999/xlink" x="0px" y="0px"
	 viewBox="0 0 383.205 116.529" enable-background="new 0 0 383.205 116.529" xml:space="preserve">
<g>
	<rect x="127.447" y="19.316" fill="none" width="255.758" height="79.534"/>
	<text transform="matrix(1 0 0 1 127.4468 45.7154)"><tspan x="0" y="0" fill="#735962" font-family="'BickhamScriptPro-Semibold'" font-size="60">With Love </tspan><tspan x="0" y="38" fill="#735962" font-family="'BickhamScriptPro-Semibold'" font-size="60">Bridal Salon</tspan></text>
	<g>
		<path fill="none" stroke="#3B1C24" stroke-miterlimit="10" d="M33.17,20.687c0,0,0.5-9,11-6.5c0,0,6-7.377,11.5-0.439
			c0,0,6-9.061,12.5-0.561c0,0,7.5-7.138,12.5,1.931c0,0,9.5-3.931,9.5,5.569c0,0,11,0.5,8,10.5c0,0,10,1.5,7,10c0,0,10,4.5,3,12
			c0,0,8,8-1,12.5c0,0,7.5,8.5-3,12c0,0,5.5,9-6,9c0,0,3,10.5-9.5,9.5c0,0,1,10.5-10,6.5c0,0-1,7.5-11.5,3c0,0-7.5,7.5-12.5-1.5
			c0,0-6,8.5-11.5-2.5c0,0-10.5,4.5-10-7c0,0-11.5,4-8-9c0,0-11,1-7-9.5c0,0-9.5-6.5-3.5-12c0,0-7-8,1.5-12.5c0,0-6.5-6.5,2-11.5
			c0,0-2-9.5,6.5-10C24.67,30.187,21.67,20.187,33.17,20.687z"/>
		<path fill="none" stroke="#3B1C24" stroke-miterlimit="10" stroke-dasharray="1" d="M36.05,24.562c0,0,0.45-8.092,9.89-5.844
			c0,0,5.394-6.633,10.339-0.394c0,0,5.394-8.147,11.238-0.505c0,0,6.743-6.417,11.238,1.736c0,0,8.541-3.534,8.541,5.007
			c0,0,9.89,0.45,7.192,9.44c0,0,8.991,1.349,6.293,8.991c0,0,8.991,4.046,2.697,10.789c0,0,7.192,7.192-0.899,11.238
			c0,0,6.743,7.642-2.697,10.789c0,0,4.945,8.092-5.394,8.092c0,0,2.697,9.44-8.541,8.541c0,0,0.899,9.44-8.991,5.844
			c0,0-0.899,6.743-10.339,2.697c0,0-6.743,6.743-11.238-1.349c0,0-5.394,7.642-10.339-2.248c0,0-9.44,4.046-8.991-6.293
			c0,0-10.339,3.596-7.192-8.092c0,0-9.89,0.899-6.293-8.541c0,0-8.541-5.844-3.147-10.789c0,0-6.293-7.192,1.349-11.238
			c0,0-5.844-5.844,1.798-10.339c0,0-1.798-8.541,5.844-8.991C28.408,33.104,25.711,24.113,36.05,24.562z"/>
		<rect x="30.205" y="36.584" fill="none" width="62.997" height="44.998"/>
		<text transform="matrix(1 0 0 1 30.2047 62.9835)" fill="#3B1C24" font-family="'BickhamScriptPro-Semibold'" font-size="60">W</text>
		<text transform="matrix(1 0 0 1 42.1485 81.5816)" fill="#DACDD3" font-family="'BickhamScriptPro-Semibold'" font-size="60">L</text>
	</g>
</g>
</svg>
